<svg width="18" height="15" viewBox="0 0 18 15" fill="none" xmlns="http://www.w3.org/2000/svg">
<g clip-path="url(#clip0_4_8)">
<path d="M9 15C8.83022 15.0034 8.66367 14.9361 8.52242 14.8069L1.39215 7.89108C-0.463251 6.08772 -0.463251 3.15513 1.39215 1.34518C2.3887 0.435726 3.5645 -0.0337094 4.76148 -1.41484e-05C5.95922 -0.0308091 7.1351 0.442078 8.13082 1.35499L9 2.19615L9.86919 1.35499C11.727 -0.448411 14.7501 -0.448411 16.6079 1.35499C18.4656 3.1584 18.4656 6.08772 16.6079 7.90091L9.47997 14.8069C9.33788 14.9362 9.17053 15.0035 9 15ZM4.76148 1.30917C3.90399 1.29106 3.06306 1.63376 2.35209 2.29106C1.02202 3.58061 1.02202 5.67858 2.35209 6.96812L9 13.4192L15.6503 6.9616C16.978 5.67201 16.978 3.57407 15.6503 2.28452C14.3227 0.994966 12.1592 0.981875 10.8267 2.29106L9.47997 3.60025C9.33761 3.7261 9.1718 3.79303 9.00239 3.79303C8.83298 3.79303 8.66716 3.7261 8.52481 3.60025L7.16369 2.29106C6.4547 1.63587 5.61654 1.29328 4.76148 1.30917Z" fill="black"/>
</g>
<defs>
<clipPath id="clip0_4_8">
<rect width="18" height="15" fill="white"/>
</clipPath>
</defs>
</svg>
